<svg version="1.1"
      xmlns="http://www.w3.org/2000/svg"
      xmlns:xlink="http://www.w3.org/1999/xlink"  id="snapshot-82356" width="250" height="250" viewBox="0 0 250 250"><desc>This image was made on Patterninja.com</desc><defs>
<!-- image 45079 -->
<g id="transformed-45079" data-image="45079" transform="translate(-16.33, 6.770000000000003) rotate(342, 49.5, 28)"><g><svg version="1.1" width="99px" height="56px" viewBox="0 0 99 56"><g id="original-45079"><svg xmlns="http://www.w3.org/2000/svg" version="1.1" viewBox="0 0 1050 600" xmlns:xlink="http://www.w3.org/1999/xlink" preserveAspectRatio="xMidYMid meet">
  <path d="M510.1 110.7c-11.9 4.9-22 17.2-25.6 31-5.2 19.7 3.6 43.8 19.5 53.8 8 5.1 20.8 7.5 29.2 5.5 19.8-4.7 33.8-23.7 33.8-46 0-19-9.9-36.4-25-43.8-4.6-2.3-7-2.7-15.5-2.9-8.9-.3-10.7 0-16.4 2.4zm27.6 7.3c6.3 2.8 13.9 10.9 17.5 18.7 9.1 19.4 1.2 44.7-16.8 53.8-18.5 9.4-41-3.6-46.3-26.6-3.3-14.2 1.6-29.8 12.4-39.7 9.7-8.9 22-11.2 33.2-6.2z" fill="rgba(15, 162, 137, 1)" stroke="none"/>
  <path d="M385.8 139.1c-7.3 1.7-15.3 6.6-21.1 12.9-9.3 10-12.7 19.1-12.7 33.5 0 24.5 15.2 43.1 37.7 46.5 11.6 1.8 22.7-1.9 31.5-10.4l3.7-3.6h201.3l4.8 4c10.2 8.6 20.9 11.9 31.7 10 31.1-5.4 46.6-40 31.6-70.7-7.7-15.7-26.8-25.7-43-22.4-16.6 3.3-28.5 15.1-33.8 33.6-2.3 7.9-1.6 22.7 1.4 30.5 1.1 3 2.1 5.8 2.1 6.2 0 .5-43 .8-95.4.8h-95.5l1.6-3.8c6.3-15 5.7-31.2-1.9-45.5-8.9-16.7-27.1-25.6-44-21.6zm16.3 8.5c15.9 4.7 27 22.4 25.6 40.6-1.6 21-16 36.3-33.9 36.2-30.4-.3-45.1-43.1-23.2-67.3 3.9-4.4 9.1-7.5 15.9-9.7 5.5-1.7 9.2-1.7 15.6.2zm266.5.6c6 2.5 11.4 7 15.4 12.5 18.4 25.7 2.7 63.5-26.4 63.7-8.6 0-14.3-2.5-21.1-9.3-9.1-9-13.1-19.5-12.3-32 1.5-21.9 17.1-38.1 35.4-36.7 3.3.3 7.4 1.1 9 1.8z" fill="rgba(15, 162, 137, 1)" stroke="none"/>
  <path d="M597.8 239.7l-32.8.3-.5 2.3c-.3 1.2-.4 57.3-.3 124.7l.3 122.5 2.3.3c5.5.8 5.2 6.5 5.2-105.9V280l21.8.2 21.7.3.5 104.5.5 104.5 2.9.3c1.6.2 3.2-.2 3.7-1 .5-.7.9-49 .9-107.4 0-101.5-.1-106.2-1.8-107.7-1.6-1.5-4.9-1.7-26-1.7H572v-24.1l49.8.3c48.8.3 49.8.4 56.7 2.7 21.5 7.1 36.3 22.3 41 42.2 1.2 5.1 1.5 14 1.5 45.1V377h-3.3c-3.9 0-5.7 1.5-5.7 4.7 0 2.9 2.7 4.3 8.4 4.3 8.3 0 7.6 4.4 7.6-48.1 0-46.5 0-46.9-2.3-53.2-3.6-9.9-7.3-15.5-16.1-24.3-12.7-12.7-25.4-18.2-47.5-20.4-5.7-.5-15.1-.9-21-.8-5.8.2-25.3.4-43.3.5z" fill="rgba(15, 162, 137, 1)" stroke="none"/>
  <path d="M379.3 241.1c-14.1 2.4-28 9.7-38 20.3-8.8 9.1-13.2 16.7-16.2 27.6-2 7-2.1 10-2.1 51.3V384l2.6 1c3.3 1.3 10 1.3 12.5 0 2.5-1.4 2.5-5.6 0-7-1.1-.5-3.1-1-4.5-1H331v-39c0-24.3.4-40.9 1.1-44.2 3.9-18.8 19.1-35 40.1-42.6l7.3-2.7 50.3-.3 50.2-.3V272h-24.4c-20.9 0-24.7.2-26 1.6-1.4 1.4-1.6 12.5-1.6 107.8 0 115.1-.3 109.2 5.2 108.4l2.3-.3.5-104.5.5-104.5 21.8-.3 21.7-.2v103.7c0 57.1.4 104.4.9 105.1.5.8 2.1 1.2 3.7 1l2.9-.3.3-122.5c.1-67.4 0-123.5-.3-124.8l-.5-2.2-51.3.1c-28.1.1-53.5.5-56.4 1z" fill="rgba(15, 162, 137, 1)" stroke="none"/>
  <path d="M346.5 300.2c-.3.7-.4 43.6-.3 95.3l.3 94 2.3.3c5.5.8 5.2 5.6 5.2-95.2 0-71.2-.3-93.5-1.2-94.4-1.6-1.6-5.7-1.5-6.3 0z" fill="rgba(15, 162, 137, 1)" stroke="none"/>
  <path d="M698.6 300.5c-.8 2.1-.8 185.8 0 187.9.4 1 1.8 1.6 3.5 1.6 2.1 0 3-.6 3.4-2.2.3-1.3.4-44.2.3-95.3l-.3-93-3.1-.3c-2.2-.2-3.3.2-3.8 1.3z" fill="rgba(15, 162, 137, 1)" stroke="none"/>
  <path d="M522.2 362.2c-.9.9-1.2 16.4-1.2 63.4 0 67.2-.2 65 5.2 64.2l2.3-.3.3-62.9c.1-45.6-.1-63.3-.9-64.2-1.4-1.7-4.1-1.8-5.7-.2z" fill="rgba(15, 162, 137, 1)" stroke="none"/>
  <path d="M390.2 385.2c-.9.9-1.2 13.8-1.2 51.9 0 54.7-.1 53.5 5.2 52.7l2.3-.3.3-51.4c.1-37.1-.1-51.8-.9-52.7-1.4-1.7-4.1-1.8-5.7-.2z" fill="rgba(15, 162, 137, 1)" stroke="none"/>
  <path d="M658.5 385.2c-.3.7-.4 24.5-.3 52.8l.3 51.5 2.3.3c5.3.8 5.2 2 5.2-52.7 0-38.1-.3-51-1.2-51.9-1.6-1.6-5.7-1.5-6.3 0z" fill="rgba(15, 162, 137, 1)" stroke="none"/>
</svg>
</g></svg></g></g>
<!-- /image 45079 -->

<!-- image 82600 -->
<g id="transformed-82600" data-image="82600" transform="translate(20.81087486595038, 62.0304169238598) rotate(0, 104.55912513404962, 59.3895830761402)"><g><svg version="1.1" width="209.11825026809925px" height="118.7791661522804px" viewBox="0 0 209.11825026809925 118.7791661522804"><g id="original-82600"><svg xmlns="http://www.w3.org/2000/svg" version="1.1" viewBox="0 0 1050 600" xmlns:xlink="http://www.w3.org/1999/xlink" preserveAspectRatio="xMidYMid meet">
  <path d="M683.5 124.8c-7.6 2.9-72.5 30.2-76.7 32.3-3.4 1.7-3.7 2.3-4.3 7.4-.4 3.1-1.3 6.2-2 6.9-.7.6-36.5 15.9-79.6 33.9-43.1 18-87.4 36.4-98.4 41l-20 8.4-.9 6.6c-.4 3.6-1.3 6.8-2 7-.6.3-11.4 4.8-24 10.1s-23.3 9.3-23.6 8.9c-.4-.5-2-4.1-3.5-8.1-1.6-3.9-3.4-7.2-4-7.2-1.8 0-15.5 6.2-15.5 7 0 .4 1.4 4 3 8 1.7 4 3 7.4 3 7.7 0 .2-3.4 1.9-7.6 3.8-12.2 5.6-12 5.8 19.7 19.2l26.7 11.3 22-9.1 22.1-9.1 4.9 3.6c2.7 2 5.4 3.6 5.9 3.6s9-3.4 18.8-7.5c9.9-4.2 26.2-11 36.3-15.2l18.3-7.6 3.7 3.5 3.7 3.6 7.5-3.4c4.1-1.8 8-3.4 8.6-3.4.6 0 1.7 2 2.4 4.5 1.3 4.5 1.2 4.6-5.3 18.8-51.9 113.4-75.7 166-75.3 166.5.3.2 2.2.5 4.2.6l3.6.1 41.1-73.5c22.7-40.4 41.3-72.8 41.4-72 .1.8 1.8 25.8 3.8 55.5 4.6 70.2 3.8 64.5 8 64.5h3.3l.6-7.3c.4-3.9 2-30.4 3.6-58.7 1.7-28.3 3.1-52.4 3.3-53.5.1-1.1 11.7 18.4 27.6 46.5 57.9 102.5 55.6 98.5 58.2 98.8 1.3.2 3.1-.3 4-1 1.5-1.2-1.7-8.5-29.7-69.3-56.3-122.3-51.9-113.6-60.3-118.1-3.6-1.9-4.8-3.3-6.3-7.1-1-2.7-1.8-5.3-1.8-5.9 0-.6 3.6-2.5 8-4.3l7.9-3.3.3-5 .3-5.1 29.4-12.3 29.4-12.4 5.4 4.1 5.3 4.2 42.7-18c30.8-13 43.2-18.7 44.5-20.4 8.5-11.5-.8-49.4-17-69.4-9.5-11.8-15.2-14.2-24.7-10.7zm18.1 14.6c6.2 6.4 14.2 21.9 17.5 34 2.7 10 2.4 21-.6 23.2-2.7 2-3.9 1.8-8.6-1.9-5.7-4.3-13.7-18-17.9-30.3-2.8-8.3-3.4-11.4-3.4-19.2-.1-10 .5-11.2 5.3-11.2 1.7 0 4.2 1.7 7.7 5.4z" fill="rgba(0, 175, 145, 1)" stroke="none"/>
</svg>
</g></svg></g></g>
<!-- /image 82600 -->

<!-- image 16801 -->
<g id="transformed-16801" data-image="16801" transform="translate(170.05, 182.28) rotate(342, 49.5, 28)"><g><svg version="1.1" width="99px" height="56px" viewBox="0 0 99 56"><g id="original-16801"><svg xmlns="http://www.w3.org/2000/svg" version="1.1" viewBox="0 0 1050 600" xmlns:xlink="http://www.w3.org/1999/xlink" preserveAspectRatio="xMidYMid meet">
  <path d="M510.1 110.7c-11.9 4.9-22 17.2-25.6 31-5.2 19.7 3.6 43.8 19.5 53.8 8 5.1 20.8 7.5 29.2 5.5 19.8-4.7 33.8-23.7 33.8-46 0-19-9.9-36.4-25-43.8-4.6-2.3-7-2.7-15.5-2.9-8.9-.3-10.7 0-16.4 2.4zm27.6 7.3c6.3 2.8 13.9 10.9 17.5 18.7 9.1 19.4 1.2 44.7-16.8 53.8-18.5 9.4-41-3.6-46.3-26.6-3.3-14.2 1.6-29.8 12.4-39.7 9.7-8.9 22-11.2 33.2-6.2z" fill="rgba(17, 60, 53, 1)" stroke="none"/>
  <path d="M385.8 139.1c-7.3 1.7-15.3 6.6-21.1 12.9-9.3 10-12.7 19.1-12.7 33.5 0 24.5 15.2 43.1 37.7 46.5 11.6 1.8 22.7-1.9 31.5-10.4l3.7-3.6h201.3l4.8 4c10.2 8.6 20.9 11.9 31.7 10 31.1-5.4 46.6-40 31.6-70.7-7.7-15.7-26.8-25.7-43-22.4-16.6 3.3-28.5 15.1-33.8 33.6-2.3 7.9-1.6 22.7 1.4 30.5 1.1 3 2.1 5.8 2.1 6.2 0 .5-43 .8-95.4.8h-95.5l1.6-3.8c6.3-15 5.7-31.2-1.9-45.5-8.9-16.7-27.1-25.6-44-21.6zm16.3 8.5c15.9 4.7 27 22.4 25.6 40.6-1.6 21-16 36.3-33.9 36.2-30.4-.3-45.1-43.1-23.2-67.3 3.9-4.4 9.1-7.5 15.9-9.7 5.5-1.7 9.2-1.7 15.6.2zm266.5.6c6 2.5 11.4 7 15.4 12.5 18.4 25.7 2.7 63.5-26.4 63.7-8.6 0-14.3-2.5-21.1-9.3-9.1-9-13.1-19.5-12.3-32 1.5-21.9 17.1-38.1 35.4-36.7 3.3.3 7.4 1.1 9 1.8z" fill="rgba(17, 60, 53, 1)" stroke="none"/>
  <path d="M597.8 239.7l-32.8.3-.5 2.3c-.3 1.2-.4 57.3-.3 124.7l.3 122.5 2.3.3c5.5.8 5.2 6.5 5.2-105.9V280l21.8.2 21.7.3.5 104.5.5 104.5 2.9.3c1.6.2 3.2-.2 3.7-1 .5-.7.9-49 .9-107.4 0-101.5-.1-106.2-1.8-107.7-1.6-1.5-4.9-1.7-26-1.7H572v-24.1l49.8.3c48.8.3 49.8.4 56.7 2.7 21.5 7.1 36.3 22.3 41 42.2 1.2 5.1 1.5 14 1.5 45.1V377h-3.3c-3.9 0-5.7 1.5-5.7 4.7 0 2.9 2.7 4.3 8.4 4.3 8.3 0 7.6 4.4 7.6-48.1 0-46.5 0-46.9-2.3-53.2-3.6-9.9-7.3-15.5-16.1-24.3-12.7-12.7-25.4-18.2-47.5-20.4-5.7-.5-15.1-.9-21-.8-5.8.2-25.3.4-43.3.5z" fill="rgba(17, 60, 53, 1)" stroke="none"/>
  <path d="M379.3 241.1c-14.1 2.4-28 9.7-38 20.3-8.8 9.1-13.2 16.7-16.2 27.6-2 7-2.1 10-2.1 51.3V384l2.6 1c3.3 1.3 10 1.3 12.5 0 2.5-1.4 2.5-5.6 0-7-1.1-.5-3.1-1-4.5-1H331v-39c0-24.3.4-40.9 1.1-44.2 3.9-18.8 19.1-35 40.1-42.6l7.3-2.7 50.3-.3 50.2-.3V272h-24.4c-20.9 0-24.7.2-26 1.6-1.4 1.4-1.6 12.5-1.6 107.8 0 115.1-.3 109.2 5.2 108.4l2.3-.3.5-104.5.5-104.5 21.8-.3 21.7-.2v103.7c0 57.1.4 104.4.9 105.1.5.8 2.1 1.2 3.7 1l2.9-.3.3-122.5c.1-67.4 0-123.5-.3-124.8l-.5-2.2-51.3.1c-28.1.1-53.5.5-56.4 1z" fill="rgba(17, 60, 53, 1)" stroke="none"/>
  <path d="M346.5 300.2c-.3.7-.4 43.6-.3 95.3l.3 94 2.3.3c5.5.8 5.2 5.6 5.2-95.2 0-71.2-.3-93.5-1.2-94.4-1.6-1.6-5.7-1.5-6.3 0z" fill="rgba(17, 60, 53, 1)" stroke="none"/>
  <path d="M698.6 300.5c-.8 2.1-.8 185.8 0 187.9.4 1 1.8 1.6 3.5 1.6 2.1 0 3-.6 3.4-2.2.3-1.3.4-44.2.3-95.3l-.3-93-3.1-.3c-2.2-.2-3.3.2-3.8 1.3z" fill="rgba(17, 60, 53, 1)" stroke="none"/>
  <path d="M522.2 362.2c-.9.9-1.2 16.4-1.2 63.4 0 67.2-.2 65 5.2 64.2l2.3-.3.3-62.9c.1-45.6-.1-63.3-.9-64.2-1.4-1.7-4.1-1.8-5.7-.2z" fill="rgba(17, 60, 53, 1)" stroke="none"/>
  <path d="M390.2 385.2c-.9.9-1.2 13.8-1.2 51.9 0 54.7-.1 53.5 5.2 52.7l2.3-.3.3-51.4c.1-37.1-.1-51.8-.9-52.7-1.4-1.7-4.1-1.8-5.7-.2z" fill="rgba(17, 60, 53, 1)" stroke="none"/>
  <path d="M658.5 385.2c-.3.7-.4 24.5-.3 52.8l.3 51.5 2.3.3c5.3.8 5.2 2 5.2-52.7 0-38.1-.3-51-1.2-51.9-1.6-1.6-5.7-1.5-6.3 0z" fill="rgba(17, 60, 53, 1)" stroke="none"/>
</svg>
</g></svg></g></g>
<!-- /image 16801 -->

<!-- image 83490 -->
<g id="transformed-83490" data-image="83490" transform="translate(162.25629106942722, 4.573493327434662) rotate(342, 49.553708930572796, 28.146506672565337)"><g><svg version="1.1" width="99.10741786114559px" height="56.293013345130674px" viewBox="0 0 99.10741786114559 56.293013345130674"><g id="original-83490"><svg xmlns="http://www.w3.org/2000/svg" version="1.1" viewBox="0 0 1050 600" xmlns:xlink="http://www.w3.org/1999/xlink" preserveAspectRatio="xMidYMid meet">
  <path d="M449.4 103.2c-10.3 18.3-19.8 35-21.1 37L426 144h-56.3c-46.9 0-57.3.3-62.2 1.5-20.7 5.2-37.6 21.7-44.2 43-1.7 5.7-1.8 12.3-1.8 125.5 0 132.2-.4 124.5 6.4 137.7 8.4 16.5 26.4 29.8 43.6 32.3 9.5 1.3 367.4 1.3 377 0 21.7-3.1 42.5-22.3 48.2-44.4 1.7-6.7 1.8-14.5 1.8-126.1 0-112.7-.1-119.3-1.8-125-5.8-18.9-20.4-34.6-37.8-41l-6.2-2.2-21.2-37.4-21.2-37.4-91-.3-91.1-.2-18.8 33.2zm209.2 10.2c9 15.9 16.4 29.3 16.4 29.8 0 .4-52.2.8-116.1.8-109.3 0-116.1-.1-115.5-1.7.4-1 6.2-11.4 13-23.3 6.8-11.8 14-24.5 16-28.3l3.8-6.7 83 .2 83 .3 16.4 28.9zm34.6 47c16.6 5.9 28.3 20 30.8 37.1 1.3 9.6 1.3 225.7 0 234.5-2.9 18.3-18.9 34.7-37.1 38-3.6.7-68.4.9-190.5.8l-184.9-.3-5.8-2.3c-12.5-5.1-24.6-17.7-28.3-29.5-.8-2.8-1.8-10.5-2.1-17l-.6-11.7H358V219l-41.2-.2-41.3-.3-.3-7.5c-1-24.5 10.7-43.2 31.6-50.6l6.7-2.4h373l6.7 2.4zM344 314.5V396h-68V233h68v81.5z" fill="rgba(20, 81, 71, 0.7441860465116279)" stroke="none"/>
  <path d="M495.5 97.9c-4.8 2.2-6.9 4.4-9 9.4-3.2 7.7-.5 16.3 6.7 21.3l4.1 2.9h123.5l4.3-3c10.4-7.4 10.7-20.8.6-28.9l-3.9-3.1-61.1-.2c-57.7-.3-61.4-.2-65.2 1.6zm122.3 13c.8.5 1.2 2.1 1 3.7l-.3 2.9-58.4.3c-42.3.1-58.8-.1-59.7-.9-1.7-1.4-1.8-4.1-.2-5.7 1.4-1.4 115.4-1.7 117.6-.3z" fill="rgba(20, 81, 71, 0.7441860465116279)" stroke="none"/>
  <path d="M394.7 175.4c-8.7 3.2-15.6 9.7-18.3 17.3-.7 2.1-1.3 6.9-1.3 10.8-.1 8.8 2.7 15.3 9.1 21.1 5.7 5.2 6.9 5.9 14.1 7.4 18.2 3.7 35.1-10.2 34.9-29 0-11.4-5.9-21-15.9-26-5.9-3-16.8-3.8-22.6-1.6zm16.2 14.1c7.4 3.8 10.5 11.5 7.6 19.1-3.4 8.9-13 12.6-21.5 8.2-5.7-2.9-8.4-7.5-8.3-14.1.2-10.9 12.5-18.3 22.2-13.2z" fill="rgba(20, 81, 71, 0.7441860465116279)" stroke="none"/>
  <path d="M536.5 191.7c-65.3 11.7-111 75.2-101 140.3 4.3 28.4 15.2 49.9 35.4 70 18.5 18.4 38.4 29.2 64.1 34.7 12.6 2.7 37.2 2.4 50.2-.5 13.3-2.9 28.9-9.2 39.5-15.8 10.8-6.8 14.9-10.2 24.1-19.6 22.3-22.7 33.7-49.7 34.9-81.8 1-28.1-5.5-51.1-20.9-74.2-18.3-27.3-49.6-47.6-82.2-53.3-11-1.9-33.1-1.8-44.1.2zm43.5 14c22.3 4.2 43.8 15.9 59.8 32.7 18.9 19.9 28.9 43.8 29.9 71.6 1.6 43-19.1 79.7-57.1 101.4-8.6 4.9-26.3 11-36.6 12.6-16.7 2.6-38.5.4-55.2-5.6-28.5-10.2-52.9-33.9-64.4-62.4-5.3-13-7.3-22.3-8.1-36.6-1.9-36.1 14.5-71.1 43.5-92.9 26-19.5 56.5-26.7 88.2-20.8z" fill="rgba(20, 81, 71, 0.7441860465116279)" stroke="none"/>
  <path d="M541 227.4c-28.2 5.9-53.2 26.4-63.9 52.5-5.4 13.1-6.6 19.3-6.5 35.1.1 12.8.4 15.6 2.8 23.5 7.4 24.5 23.1 43.5 45.1 54.5 14.8 7.4 22.9 9.3 40.5 9.4 15.8.1 22.1-1.1 35.1-6.5 18.8-7.7 35.6-23.5 45.2-42.6 1.5-2.8 3.9-9.1 5.4-14 2.5-8 2.7-10.2 2.7-25.3 0-15.4-.2-17-2.8-25-9.8-29.5-29.9-49.8-58.6-59.1-8.5-2.8-11-3.2-24-3.5-9.7-.2-16.7.1-21 1zm37.2 14.1c24.4 6.2 45.7 26.8 53.3 51.5 2.5 8.2 3.1 27.6 1.2 37.2-4.1 19.6-17.5 38.1-35.5 48.7-12.9 7.7-26.2 10.7-43.9 9.9-18.3-.9-32.7-7.3-46.3-20.8-16.8-16.6-23.9-34.7-22.7-58 .9-18.4 7.2-33.3 20-46.7 12.1-12.7 27-20.8 43.1-23.4 7.2-1.1 23.3-.3 30.8 1.6z" fill="rgba(20, 81, 71, 0.7441860465116279)" stroke="none"/>
</svg>
</g></svg></g></g>
<!-- /image 83490 -->

<!-- image 46147 -->
<g id="transformed-46147" data-image="46147" transform="translate(-4.07, 180.16) rotate(342, 49.5, 28)"><g><svg version="1.1" width="99px" height="56px" viewBox="0 0 99 56"><g id="original-46147"><svg xmlns="http://www.w3.org/2000/svg" version="1.1" viewBox="0 0 1050 600" xmlns:xlink="http://www.w3.org/1999/xlink" preserveAspectRatio="xMidYMid meet">
  <path d="M522 70c-11.5 2-19 10.7-19 22 0 6.7 1.7 10.5 7.4 16.3l4.6 4.8.1 9.5c0 5.3-.2 9.8-.4 10.1-.9.8-17.6-3.7-26.7-7.2-10.6-4-21-9.3-27.5-13.9-10.8-7.7-14-9.6-15.5-9.6-6.1 0-21.6 7.7-44.5 22-46.8 29.2-65 37.2-94.8 41.5-9.3 1.3-17.2 2.7-17.5 3-3.8 3.8 26.2 7.1 41.3 4.5 4.6-.7 5.2-.6 7.8 1.8 3.6 3.4 8.8 3.3 21.8-.6l9.5-2.8 3.9 2c3.8 2 3.9 2 11.9.1 4.8-1.1 10.6-1.7 14.1-1.6 3.3.2 8.9.4 12.5.4 3.6-.1 9.9 0 14 0 13.6.1 16.4-.2 22-2.1 4.8-1.6 6.5-1.7 12.8-.9 7 1 7.5 1 15.1-2.1 6.9-2.8 8.6-3.2 13.5-2.6 6.5.8 11.9-.9 20.4-6.3 2.9-1.8 5.7-3.3 6.2-3.3.6 0 1 3.5 1 8.2 0 4.6.3 32.8.7 62.7.5 46.5.4 54.3-.8 53.8-5.6-2.3-32.7-10.5-48.7-14.7-37.5-9.8-45.5-14.9-42.3-26.7 1.4-5.2 7.1-11.6 12.7-14.3 3.5-1.8 6.8-2.3 15.2-2.7 16.4-.6 26-2.1 31.9-4.8 6.4-2.9 17.3-11.2 17.3-13.2 0-2.1-6.4-4.4-16.9-6-5.1-.7-12.9-2.7-17.2-4.4-4.4-1.7-8.7-2.8-9.8-2.4-1 .3-4.5 2.3-7.8 4.3-3.2 2.1-10 6-15.2 8.8-6.7 3.5-11.6 7-16.8 12-9.7 9.4-11.8 14-11.8 25.9 0 8.2.3 9.7 3.3 15.7 4.1 8.3 10.7 14.4 21.7 19.8 10.4 5 19.3 7.8 45 14 11.6 2.8 21.5 5.2 22.2 5.5.6.2-2.8 4.3-7.6 9.2-13.6 13.8-19.2 27-19.2 45.3 0 10.1 1.2 15 5.4 21.6 3.4 5.5 12.1 13.4 20.6 18.9 4 2.5 7.2 4.8 7 4.9-.2.2-3.8 3.1-8 6.4-9.3 7.3-13.9 12.8-17.9 21.4-5.7 12.2-6.1 22.9-1.1 32.7 3.3 6.5 11.8 14.8 25.7 25.2l13.3 10-3.4 4.7c-11 15.3-15.8 29.6-12.6 37.6 1 2.6 1.7 1.3 3-5.8.6-3.2 2.1-7.9 3.3-10.4 3.4-6.7 14.3-18.3 13.7-14.4-.1.4-.1 8.9 0 18.9l.1 18.3h8v-19c0-10.9.4-19 .9-19 1.6 0 11 11.2 13.1 15.6 1.1 2.3 2.5 6.9 3.1 10.3 1.3 6.9 2.5 7.8 3.5 2.5 1.5-8.1-3.4-21.4-12.2-33.2-2.5-3.4-4.5-6.4-4.3-6.5.2-.2 5.1-3.6 10.9-7.7 14.7-10.3 26.1-21.9 28.9-29.6 5.6-14.9.8-31.6-13-45.5-3.6-3.7-8.5-7.9-10.8-9.4-2.2-1.5-4.1-3-4.1-3.4 0-.3 2.9-2.2 6.3-4.1 7.8-4.4 20.7-17 23.6-23.2 4.5-9.4 4.7-22 .7-36-3.1-10.4-7.6-17.8-17.2-27.6-4.5-4.6-7.6-8.5-7-8.8.6-.2 6.1-1.5 12.1-2.9 32.9-7.7 43-10.8 55.5-16.8 9.9-4.8 17.3-11.6 21.6-19.8 2.6-4.8 2.9-6.4 2.9-14.9 0-8.1-.4-10.2-2.4-14-5.3-10-14.9-18.8-27.6-25.2-3.3-1.7-8.6-4.9-11.9-7-8.9-6.1-11.3-6.5-19.3-2.9-4.6 2-10.5 3.4-17.9 4.5-18.5 2.5-20.1 4.5-10.1 12.4 11.2 8.9 14.9 10 37.9 11.1 13 .7 16.4 1.2 20.1 3 5.9 2.9 11.3 8.9 12.7 14.2 3.2 11.9-5 17.2-42.1 26.9-16.2 4.3-43.4 12.5-48.8 14.7-1.2.5-1.3-8.4-.7-62.3.4-34.6.8-62.9.9-63 .1-.1 3.4 1.7 7.2 4 9.4 5.8 13.5 7 20.4 6.2 5-.6 6.5-.3 11.7 2.1 5.3 2.5 7 2.8 16.9 2.8 7.6 0 13 .6 17.4 1.9 5.3 1.5 7.5 1.6 13 .8 4.4-.6 8.5-.6 12.4.1 4.3.8 7.8.7 13.5-.2 7-1.1 8.4-1.1 15.6.8 9.7 2.6 11.3 2.6 15.1.3 3-1.8 3.1-1.8 12.5 1 12.8 3.9 19.1 4 22.8.6 2.6-2.5 3-2.6 8.2-1.6 6.6 1.2 30.7.4 36.8-1.3 8.3-2.3 4.5-4.2-13.1-6.5-15.3-1.9-18.2-2.6-29.3-6.5-13.3-4.6-35.1-16.1-60.9-31.9-29.7-18.2-41.5-24.1-48.1-24.3-4.5-.1-5.5.3-12.2 5.4-8.2 6.3-21.3 13.5-31.7 17.4-6.4 2.4-24.5 7.5-26.6 7.5-.5 0-.9-4.6-.9-10.2v-10.1l3.9-3.4c9.5-8.1 10.9-22.1 3-31.6-5-6.1-12.5-9-19.9-7.7zm-3.5 275.8l.7 36.2-5.6-3.2c-19.3-11.1-24.6-20.5-21.1-37.1 2.4-11.7 9.8-22.5 19.8-29.2 2.8-1.9 5.2-3.3 5.3-3.2.1.1.5 16.5.9 36.5zm24.6-28.9c10.1 9.2 16.2 23.3 15.2 35.1s-5.3 16.9-23.7 28l-3.9 2.3.6-28.4c.4-15.6.7-32.1.7-36.7v-8.3l2.9 1.5c1.6.9 5.3 3.7 8.2 6.5zm-23.9 100.3c.2 4 .5 19.6.6 34.7l.3 27.4-5.8-5c-3.2-2.8-9.7-9.1-14.5-14.1-9.3-9.7-10.6-12.5-9.4-20.4 1.4-8.7 7.3-16.3 18.7-24.2 4.6-3.1 8.6-5.6 9-5.6.4 0 .9 3.3 1.1 7.2zm20.7-2.3c12.4 8.5 18.8 17 19.8 26.5.9 8.8-2.9 14-22.7 31.6l-7.3 6.5.6-34.5c.3-19 .6-34.7.7-34.9.1-.7 3.3 1 8.9 4.8z" fill="rgba(241, 255, 133, 0.7093023255813954)" stroke="none"/>
</svg>
</g></svg></g></g>
<!-- /image 46147 -->

<!-- image 99143 -->
<g id="transformed-99143" data-image="99143" transform="translate(-10.149999999999999, 98.65) rotate(342, 49.5, 28)"><g><svg version="1.1" width="99px" height="56px" viewBox="0 0 99 56"><g id="original-99143"><svg xmlns="http://www.w3.org/2000/svg" version="1.1" viewBox="0 0 1050 600" xmlns:xlink="http://www.w3.org/1999/xlink" preserveAspectRatio="xMidYMid meet">
  <path d="M363.3 61.5c-2.9.8-7.2 2.4-9.5 3.6-6.2 3.2-16.1 13.5-19.6 20.5-6.7 13.3-6.3-3.3-6 226.1l.3 207.8 2.1 5.2c2.7 6.5 5.5 10.1 10.6 13.5l4.1 2.8h178.9c201 0 182.3.8 189.8-7.7 2.2-2.5 5-7 6.2-10.2l2.3-5.6.3-129.9c.2-96.1-.1-130.2-.9-131.2-1.3-1.6-3.8-1.8-5.9-.4-1.3.8-1.6 16.7-2 130.2l-.5 129.3-2.6 5.6c-3.2 6.9-8.3 11-14.2 11.6-2.3.2-63.3.5-135.4.6l-131.3.2V161h164v60.9c0 54.1.2 61.1 1.6 62.5.8.9 2.3 1.6 3.2 1.6.9-.1 8.2-4.5 16.2-9.9l14.5-9.8 14.7 9.8c8.1 5.5 15.6 9.9 16.6 9.9 4.2 0 4.2.3 4.2-63.7V161h49v19.9c0 16.8.2 20.2 1.6 21.5 1.8 1.9 2.8 2 5.5.6 1.8-1 1.9-2.4 1.9-24.8 0-17.2-.3-24.1-1.2-25-.8-.8-4.7-1.2-11-1.2H701v-44.1c0-28.4-.4-44.7-1-46-1.1-1.9-3.9-1.9-166.3-1.8-139.1 0-166 .3-170.4 1.4zm327.7 49V152l-161.2-.2-161.3-.3-6-2.4c-8.3-3.3-18.3-13.3-21.6-21.6-2-5.1-2.4-7.7-2.4-17.5 0-10.4.3-12.1 2.7-17.3 5.4-11.5 17-20.6 29-22.6 2.9-.5 76.3-.9 163.1-1L691 69v41.5zm-336.9 45c9.7 5 13.4 5.5 40.7 5.5H420v372h-34.9c-34.6 0-34.8 0-38.2-2.3-1.9-1.2-4.5-4.3-5.9-6.7l-2.5-4.5-.3-188.7-.2-188.7 5.3 5.4c3 2.9 7.8 6.5 10.8 8zm301.9 61c0 30.5-.3 55.5-.6 55.5-.4 0-6-3.6-12.5-8s-12.4-8-13.2-8c-.9 0-6.8 3.6-13.3 8-6.5 4.4-12.2 8-12.6 8-.4 0-.8-25-.8-55.5V161h53v55.5z" fill="rgba(100, 214, 119, 1)" stroke="none"/>
  <path d="M379.9 74.4c-11.5 3.2-20.9 11-25.7 21.4-2.3 4.9-2.7 7-2.7 14.7 0 8.2.3 9.7 3.3 15.7 4 8.2 11.7 15.5 19.8 18.9l5.9 2.4 148.4.3c109.8.2 148.7-.1 149.7-.9 1.9-1.6 2.1-70.8.2-72.7-1.8-1.8-292.4-1.6-298.9.2zM671 110.5V139l-144.2-.2-144.3-.3-5.3-2.4c-9.7-4.4-17.2-15.5-17.2-25.6 0-8.6 5.8-18.7 13.3-23.4 8.3-5.1 3.8-5 156-5L671 82v28.5z" fill="rgba(100, 214, 119, 1)" stroke="none"/>
</svg>
</g></svg></g></g>
<!-- /image 99143 -->

<!-- image 65430 -->
<g id="transformed-65430" data-image="65430" transform="translate(70.07, 10.840000000000003) rotate(342, 49.5, 28)"><g><svg version="1.1" width="99px" height="56px" viewBox="0 0 99 56"><g id="original-65430"><svg xmlns="http://www.w3.org/2000/svg" version="1.1" viewBox="0 0 1050 600" xmlns:xlink="http://www.w3.org/1999/xlink" preserveAspectRatio="xMidYMid meet">
  <path d="M437.5 95.1c-1.6 1.1-6 3.5-9.6 5.4-10.3 5.3-14.3 11.3-18.9 28.3-2.2 8.1-2.3 8.3-9.9 14.9-4.2 3.7-10.4 9.4-13.8 12.7-4.4 4.2-6.3 5.5-6.3 4.3 0-2.8 2.4-6.8 9-14.8 4.4-5.3 6.5-8.9 7.6-12.9.8-3 1.9-7.2 2.5-9.2.6-2.5 2.6-5.1 5.9-8 2.8-2.4 5-4.6 5-5.1 0-1.9-3.5-.3-8.4 4-3 2.7-8.2 7.2-11.5 10.2-9.4 8.2-12.7 15.8-14 33.2l-.8 9.8-7 9.3c-3.8 5.1-8.4 11.5-10.2 14.1-1.8 2.7-3.5 4.6-3.7 4.4-.6-.6 2.5-9.7 4.2-12.4 3.1-4.9 5.4-12.6 5.9-20 .9-12.7 1.4-14.1 6-19.8 4.9-6 5.2-6.5 3.1-6.5-.8 0-2.9 1.9-4.7 4.2-1.8 2.4-5.9 7.1-9.1 10.6-9.4 10.2-9.3 9.8-9 31.5l.3 18.8-4.9 10.7c-2.7 5.9-5.7 12.9-6.7 15.7-1 2.7-2.2 5.4-2.7 5.9-1.5 1.8-.8-5.3 1.3-13.1 2.2-7.9 2.2-9.6.3-27-.6-5.9-.5-6.7 3.2-13.7 2.1-4.2 3.5-7.9 3-8.3-1.3-1.3-5.2 4.4-11.8 17.4-5.9 11.6-6.2 12.6-6.1 19 .1 4.3 1.4 12 3.8 20.8l3.6 14-2.6 12.5c-4.1 19.4-3.6 17.8-4.5 15.5-.4-1.1-.6-2.3-.3-2.7.2-.4.4-5 .4-10.2 0-8.4-.4-10.2-3.1-16.2-5-11-5.3-13.3-3-20.5 1.1-3.5 2-7.3 2-8.4-.1-1.9-.1-1.9-1.9.2-2.7 3.3-8.3 24.3-8.2 31.1.1 7.6.9 10.3 7.9 23.6l6 11.4.4 19.1c.1 10.5 0 19.1-.5 19.1-1.1 0-2.4-3.9-3.1-10-1.2-9.3-3.4-15.3-8.1-22.5-6-9.2-6.9-12.2-6.2-21.6.5-6.2.3-7.9-.7-7.9-.8 0-1.6 1.3-1.9 2.8-1 5.1-2 29.8-1.3 33.5.8 4.4 8.4 16 16.5 25.2 3.6 4.1 6.5 8.4 7 10.5.4 1.9 1.8 8.2 3 13.9 1.3 5.7 2.5 11.1 2.9 12 .5 1.3.3 1.4-1 .4-.8-.7-2-3.2-2.7-5.5-2.6-8.6-6.3-14.7-12.2-19.8-7-6.1-9.4-9.8-10.9-17.2-1.5-7.4-3.5-9-2.7-2.2.7 6.3 3.2 20 4.7 25.5 1.4 5 9.4 13.4 20.5 21.7 6.1 4.5 7.4 5.9 9 10.4 1 2.9 3.3 8.2 5 11.8 1.8 3.6 3.6 7.6 4 9 1.4 4.5-2.1.4-6.4-7.4-4.9-8.8-6.9-10.7-15.1-14.5-7.3-3.3-9.7-5.5-13.1-12.1-2.1-4-2.4-4.2-2.7-2.1-.5 3 8.6 21.4 13.4 27 2.8 3.2 6.6 5.6 15.6 10l11.9 5.8 4.3 7c2.4 3.8 6.9 10.5 10.2 14.8 9.9 13.1 9.3 12 5.7 10.2-1.7-.9-5.4-4.6-8.2-8.2-5.7-7.2-9-9.7-16.6-12.1-8.5-2.8-13.4-6.1-17.1-12-1.9-3-3.9-5.4-4.4-5.4-2.1 0-.8 3.8 3.8 11.4 10.4 17 14.5 20.2 35.7 27.6 6.6 2.3 12.9 4.7 14 5.3 1 .5 5.8 4.7 10.5 9.2 4.7 4.6 10.1 9.7 12 11.4 2.1 1.8 2.9 3.1 2 3.1-2.1 0-6.7-3-12.5-8.2-7-6.3-9.8-7.5-19.3-8.1-8.4-.5-9.3-.9-17.8-7.2-2.1-1.5-2.7.1-.9 2.9 2.6 3.9 18.3 17.3 23 19.6 3 1.4 8.6 2.5 19.6 3.6l15.4 1.5 9.7 6.2c5.3 3.4 12.1 7.5 15 9.2 4.4 2.5 4.9 3 3 3.3-2.2.3-8.9-2.6-17.2-7.5-3.8-2.3-5.5-2.7-11-2.5-11.5.3-19-1.5-26.2-6.2-2.7-1.8-2.8-1.8-2.8.1 0 2.3 12.6 11.8 21.9 16.4 6.9 3.5 9.8 3.7 30.7 2.5 11.5-.7 13.6-.6 16.5 1 1.9.9 8.7 3.6 15.2 5.9 6.4 2.3 11.4 4.4 11.1 4.8-1.5 1.5-8.8.6-13.7-1.7-8.1-3.6-9.2-3.8-15.5-2.1-8.8 2.2-20.2 2-26.3-.6-2.7-1.2-5.3-1.8-5.7-1.5-2 2.1 12.3 8.6 28.2 12.9 7 1.9 8.6 2 15.8.9 4.3-.6 11.7-2.4 16.3-4 8.1-2.8 8.7-2.9 14.2-1.6 3.1.7 10.6 2.1 16.6 3 6.7 1 10.5 2 9.9 2.6-1.2 1.2-6 1.3-14.7.3-6.7-.7-7.3-.6-13.4 2.6-6.3 3.3-6.8 3.4-18.3 3.4-18.4 0-14.1 2.6 10 6 16.3 2.3 22.1 1 37.7-8.9 7.1-4.5 6.8-4.4 8.9-3.7 1.5.6.8 1.4-4 5.1-3.3 2.4-9.9 8.3-14.9 13.1-9.4 9.2-15.5 12.8-21.4 12.9-5.8 0-2.3 1.9 6.7 3.6 4.5.8 10.2 1.4 12.7 1.2l4.6-.3 2.8-8.1c4.3-12.7 10.8-21.7 18.2-25.5 4.3-2.2 7-1.6 12.6 2.7 6.5 5 16.2 22.7 16.3 29.8 0 1.7.6 1.8 8.3 1.3 4.5-.3 10.7-1.1 13.7-1.8 5.9-1.3 5.7-1.6-2.8-3.8-3.3-.9-6.7-3.5-14.6-11-5.7-5.5-12.9-11.8-16.1-14.2-3.7-2.8-5.2-4.5-4.4-5 1.6-.9 3.4-.2 8.7 3.3 2.3 1.6 7.7 4.6 12 6.6 7 3.3 8.4 3.7 15.7 3.5 12.3-.2 32.5-4 32.5-6.2 0-.3-5.3-.6-11.7-.6-11.4 0-12-.1-18.6-3.4-6.4-3.2-7.1-3.3-13.5-2.6-8.4 1-11.5 1-13.8.1-2.8-1.1.1-2.6 5.1-2.6 2.2 0 9.2-1.1 15.5-2.4l11.5-2.3 7.5 2.8c10.7 3.9 21.4 5.4 28.7 4.1 10.8-1.9 32.3-10.7 32.3-13.3 0-1.3-1.3-1.1-6.1 1.1-5.5 2.5-17.3 2.7-26.2.4l-6.3-1.5-7.7 3c-7.5 3-14 4-15.1 2.2-.3-.4 1.4-1.4 3.7-2 2.3-.7 9.3-3.3 15.5-5.7l11.3-4.5 14.2.8c18.4 1 21 .8 28.4-2.7 6.6-3 17.6-10.4 20.7-13.9 3.2-3.6 1.3-4.3-3.4-1.2-5.2 3.4-10.7 4.5-20.5 4.3-8-.2-12.6 1-17.2 4.5-4.3 3.2-11.2 6.3-14.1 6.3-3.5 0-2-1.4 6.6-6.1 4.2-2.3 10.7-6.2 14.3-8.6 6.4-4.3 6.7-4.4 18.5-5.3 21.1-1.8 23.8-2.8 36-13.9 7.2-6.6 11.7-11.9 10.9-13.1-.3-.5-2.7.7-5.6 3-2.8 2.2-5.8 4-6.7 4-15.2.3-18.3 1.3-27.8 9.6-6.1 5.4-13.9 9.7-12.8 7.2.3-.7 2.4-2.7 4.7-4.5 2.3-1.8 7.8-6.8 12.3-11.1l8-7.8 15.7-5.8c8.6-3.2 17.6-7.1 19.9-8.6 7-4.6 22.9-30 18.9-30-.6 0-2.7 2.4-4.6 5.4-4 6.3-7.6 8.7-17.6 12.1-7.8 2.7-11.6 5.6-17.6 13.8-1.9 2.6-4.9 5.5-6.5 6.3-3.5 1.8-3.5 1.9 4.5-8.9 3.5-4.5 8.4-11.6 11-15.8l4.7-7.5 11.9-5.7c9.1-4.4 12.9-6.8 15.6-10 6-6.9 16.6-30.7 12.6-28.3-.6.4-1.9 2.5-2.7 4.7-2 4.8-7.1 9.4-12.4 11-5.9 1.8-11.2 6.9-15.3 14.7-3.2 6-6.7 10.7-6.7 8.8 0-.3 2-5 4.4-10.3 2.4-5.4 4.8-11.4 5.5-13.4.9-2.7 3.2-5.2 8.9-9.6 14.4-11.2 18-15 19.7-20.5 2-6.9 5.8-28.8 5.1-29.5-1.1-1.1-1.7.4-3.3 7.3-1.5 6.5-1.9 7.2-9.7 14.8-7.4 7.4-8.4 8.9-11.4 16.8-1.9 4.8-3.8 9.1-4.4 9.4-.6.4-.8-.1-.5-1.2.8-3 4.4-19.5 5.1-23.5.5-2.6 3.4-7.1 10.2-15.5 5.2-6.5 10.6-14.2 12.1-17.2 2.6-5.3 2.6-5.6 2-20-.7-15.2-1.7-21.1-3.3-20.2-.5.3-.9 4.6-.9 9.6 0 8.8-.1 9.2-3.8 15-6.2 9.7-8.5 15.4-10.2 25.4-.9 5.2-2.2 10-2.8 10.7-.9.9-1.1-3.3-1-18l.3-19.2 6.7-13.2c5.8-11.4 6.8-14 7.1-19.7.6-9.5-4.5-30.4-8.4-34.6-1.2-1.2-1.4-1.2-1.4.7 0 1.1.7 4 1.5 6.4 2.6 7.3 2.1 11.7-2.1 21-3.9 8.4-3.9 8.4-3.7 20.1.2 6.5-.1 11.8-.5 11.8s-1.3-3.5-2-7.8c-.6-4.2-2-10.7-2.9-14.4l-1.7-6.8 3.8-14.8c5.2-20.5 5.1-24.8-.9-36.8-6.3-12.4-11.4-20.4-13.1-20.4-1 0-.3 2.3 2.7 8 3.9 7.4 4.1 8.3 3.5 13.7-1.9 17-1.8 19.7.3 28 3.4 13 2.6 17.4-1.3 7.3-1-2.5-4.2-9.9-7.2-16.6l-5.4-12.1.7-10.4c1.7-25.1 1-27.8-9.6-39.3-3.7-3.9-7.7-8.6-8.9-10.4-1.3-1.7-3-3.2-3.8-3.2-2.1 0-1.8.8 2.7 6.1 4.7 5.6 5.9 9.2 5.9 17.5 0 7.3 2 14.2 6.5 23.2 3.6 6.9 5 13.9 2 9.7-.8-1.1-5.5-7.4-10.4-14.1l-8.9-12-.3-7c-.6-17.1-4.7-27.5-13.7-35.3-3-2.5-8.1-7-11.4-9.9-5.3-4.6-8.8-6.4-8.8-4.6 0 .3 2.4 2.9 5.4 5.7 4.2 4 5.6 6.1 6.1 9.2 1.5 8.7 2.8 11.7 7.5 17.7 7.6 9.5 10 13.2 11 16.6.5 1.8.7 3.2.6 3.2-.1 0-4-3.6-8.7-8.1-4.6-4.4-10.9-10-14-12.5-5.4-4.3-5.6-4.7-8.3-14.1-3.3-11.8-7.1-19.7-11-22.9-1.6-1.4-5.6-3.9-8.9-5.6-3.4-1.6-7.3-4-8.9-5.1-3.7-2.8-4.8-1.4-1.6 2.1 1.4 1.5 4 5.6 5.8 9.2 2.4 4.8 5.7 8.9 12.6 15.6 8.2 7.9 10.9 11.4 8.8 11.4-.3 0-5-2.8-10.4-6.1-6.7-4.2-11.8-8.3-15.9-12.9-8.8-9.9-17-13.9-32.1-16-9.1-1.2-26.6.2-28.7 2.3-1.3 1.2-.6 1.5 4.8 2.1 7.9.9 10.5 2.3 19.7 10.3 9.8 8.5 14.2 10.5 24.1 10.5 4.3 0 9.3-.3 11.2-.7 3.1-.6 4.7.1 13.5 5.4 5.4 3.3 11.3 7.1 12.9 8.5l3 2.4-3.8.7c-3.3.6-5.1.1-13.5-4.1-10.9-5.4-9.9-5.3-34.9-3.9-7.3.4-13.3 1.2-13.3 1.6 0 .5.2.9.4.9 3.7 0 12.8 3 19.9 6.6l9.2 4.6 15-.7c8.3-.4 17.8-.8 21.2-1l6.2-.2 10.3 9.2c10.1 9 16.2 15.7 15.2 16.8-.8.8-6.2-1-9.2-2.9-1.5-1-5-3.6-7.8-6-5.9-4.7-9-5.6-26.4-7.4-5.8-.5-12-1.3-13.9-1.6-4.8-.9-3.2 1 2.5 3 2.5.8 7.6 4 11.3 6.9 3.6 3 7.5 5.9 8.6 6.4 2.1 1.1 11.5 2.6 26 4.3 14.2 1.7 14.6 1.9 22.1 12.5 7.7 11.2 11.9 18.4 11 19.2-1.3 1.3-5.9-2.3-11.1-8.8-6.3-7.8-11-10.4-24.9-13.8-4.8-1.2-10.6-3.1-12.7-4.1-4.3-2.3-4.9-2.4-4.9-1.1 0 .5 1.9 2.1 4.3 3.4 2.4 1.4 7 5.6 10.3 9.4 7.6 8.7 7.7 8.8 15.4 11.4 3.6 1.2 11.4 4 17.4 6.3l10.9 4.1 3.7 8c4.3 9.2 9.4 23.9 8.8 25.5-.6 1.9-5.2-3.4-9.3-11-4.9-8.9-8.1-11.8-19.8-17.6-5.1-2.6-11.1-6-13.4-7.7-5.6-3.9-7-2.5-1.9 1.8 2.2 1.8 6.3 7.3 9.1 12.2 5.4 9.5 4.4 8.7 27.1 23.2l11.1 7.1 1.7 8.2c1 4.6 2.1 11.2 2.4 14.8.5 5.9.4 6.4-1.1 5.2-.9-.8-2.8-5-4.3-9.4-3.1-9.6-6.7-13.9-17-20.9-3.9-2.6-8.3-6.1-9.7-7.8-3.2-3.8-4.2-4-2.3-.4.7 1.6 2.1 5.7 3 9.3 2.4 9.1 5.5 13.9 14.3 21.7 4.3 3.7 10.1 9 13 11.7l5.3 4.9V300c0 12.3-.9 23-2 23-1.4 0-2.9-5.5-3.3-12.5-.6-9.5-2.6-13.3-12.9-24.2-4.9-5-8.8-9.9-8.8-10.7 0-.9-.4-1.6-.8-1.6s-.4 2.8.1 6.2c2 14.7 2.7 16.6 8.6 24.6 3.1 4.2 8.1 11.3 11 15.6 5.3 7.7 5.3 8 4.7 13.5-.5 5.1-5.9 25.8-7 26.8-.3.3-.9.2-1.5-.2-1.3-.8-1.4-6.8-.1-15.4 1.1-7.9.3-10.4-7.3-23-3.4-5.6-5.7-10.6-5.7-12.3 0-1.5-.4-2.8-.9-2.8s-1.2 5.6-1.6 12.3c-.7 12.4-.7 12.4 2.3 18.3 3.7 7.4 12.2 28.6 12.2 30.5 0 2.1-14 29.9-15 29.9-1.7 0-1.1-6.7 1.1-11.7 3.9-8.9 3.7-14.4-1-27.8-2.2-6.6-4.1-13.3-4.2-15 0-2.5-.2-2.7-.9-1-2 5-6 21.5-6 24.8 0 2 1.3 8.3 2.9 13.9 5 17.5 5.6 21.5 3.5 24.6-3.7 5.8-15.4 20.9-18.3 23.6-2.7 2.6-3.1 2.7-3.1 1 0-1 2.3-6.5 5.1-12l5.1-10.2-1.3-8.8c-.8-4.9-1.4-12.4-1.4-16.7 0-4.2-.1-7.7-.3-7.7-.2 0-1 1.7-1.8 3.8-.8 2-2.6 5.8-4 8.4-5 9.5-6.4 15.4-6.3 26.7 0 5.8.4 13.3.8 16.6l.8 6-6.4 5.9c-7.7 7.2-19.4 16.6-20.6 16.6-.5 0-.6-.7-.3-1.6.3-.9.6-2.1.6-2.8 0-.7 3.1-4.9 6.9-9.4 7.7-9.1 9.1-12.9 9.1-25 .1-3.7.7-8.5 1.5-10.7 1.7-4.8 1.3-5.6-1.1-1.8-1 1.5-4 5.3-6.5 8.5-8.4 10.2-11.3 18.6-13.4 39.1l-.7 6.8-6.8 4.4c-8.6 5.5-21 11.8-21.8 11.1-.8-.9 2.8-4.5 9.4-9.2 7.2-5.2 8.1-6.8 12.9-23.5 2-6.8 4.3-13.1 5.2-14.1 3.9-4.3-.6-1.2-8.2 5.8-10.3 9.3-13.4 14-18 27.4-5.9 16.9-6 17.1-17.8 21.4-12.3 4.6-22.3 7.3-23.3 6.3-1.4-1.3 2.1-4 11.7-8.7 10.8-5.5 12.6-7.3 17.5-18 1.9-4.1 5.4-9.4 7.7-11.8 4.8-4.9 3.9-5.4-2.6-1.2-2.6 1.7-7.1 4.2-10 5.6-7.1 3.6-9.7 6.2-18.7 18.9-4.3 6-9.7 12.8-11.9 14.9-3.9 3.8-4.1 3.9-16.5 5.5-17.4 2.1-18.4-.1-2.4-5.5 9.3-3.1 13-6 18.8-14.9 2.3-3.6 5.8-7.5 7.8-8.7 1.9-1.2 3.1-2.3 2.5-2.5-1-.4-15.1 3.5-21.5 5.9-2.6 1-8.2 6.5-20.6 20.6l-6.3 7.2h-10.7l-6.4-7.1c-18.4-20.7-16.9-19.5-29.5-23.4-6.3-2-12.2-3.9-13.1-4.2-.9-.3.6 1.5 3.3 3.9 2.8 2.5 7 7.5 9.4 11.1 4.8 7 8 9.3 17.1 12.2 11 3.5 14.3 6.5 7.3 6.5-7.4-.1-22.2-2.8-24.7-4.7-1.4-1-5.2-5.4-8.3-9.7-13.1-17.9-15-20.2-19.5-23.1-7-4.5-19.4-11.5-20.4-11.5-.4 0 1.1 1.9 3.3 4.2 2.5 2.5 5.7 7.6 7.8 12.3 4.6 10.1 6.2 11.8 16 16.7 9.7 4.9 13.5 7.5 13.5 9.3 0 1.1-.8 1.1-3.7.4-7.1-1.9-16.8-5.1-23.9-8-8.1-3.4-8.3-3.7-14.1-20.4-1.9-5.5-4.8-12.1-6.4-14.6-2.5-4-18.8-19.9-20.3-19.9-.3 0 .3 1.5 1.3 3.3 1.1 1.7 3.1 7.7 4.6 13.1 4 14.8 5.8 18 12.9 23.1 6.8 4.8 10.2 8.2 9.3 9.1-1.3 1.3-28.7-14.4-28.7-16.4 0-.4-.7-6.3-1.5-13-2-16.1-4.5-22.1-13.4-33.2-2-2.5-4.5-5.8-5.5-7.3-2-3.3-3.4-3-1.6.3.6 1.2 1.5 7.5 2 14s1.4 12.8 2.1 14.1c.6 1.3 3.6 5.2 6.7 8.7 5.1 6.1 8.9 12.8 7.8 13.9-.8.8-8.6-5-17.6-13.2-4.7-4.3-8.7-8.1-9.1-8.6-.3-.5-.2-3.5.2-6.6 1.3-10.6 1-25.6-.7-31.3-1.2-4.1-10-23-10.8-23 0 0-.1 2.8-.1 6.2 0 3.5-.6 10.8-1.3 16.2l-1.4 9.9 5.1 10.3c5.7 11.4 6.6 15 3 11.8-3.3-2.9-13.1-15.2-17.4-21.7l-3.8-5.7 1.8-8.3c1-4.5 2.8-11.8 4.1-16.1 3-9.9 3-12 0-23.1-1.4-5-2.8-10.4-3.2-12-.7-2.9-.7-2.9-1.5 1.5-.4 2.5-2.3 9-4.4 14.5-4.3 12-4.5 16.7-1.1 25.9 2.7 7.1 3.4 12.6 1.5 12.6-.5 0-4.2-6.6-8.1-14.7l-7.2-14.6 2.7-7.8c1.4-4.2 5-12.7 7.8-18.9l5.1-11.2-.7-11.4c-.4-6.3-1.1-11.4-1.6-11.4s-.9 1-.9 2.3c0 1.3-1.8 5.2-4 8.8-2.3 3.5-5.4 9.2-7.1 12.5l-3 6.2 1.2 9c1.1 9 .7 14.2-1.1 14.2-1.7 0-8-23.6-8-30.1 0-3.7 5.2-12.1 17.1-27.6 5-6.6 5.4-7.6 6.9-19.3.5-4.2 1.2-8.3 1.6-9.3.3-.9.2-1.7-.4-1.7-.5 0-1.3 1.2-1.7 2.7-.3 1.6-4.4 6.7-9.1 11.4-9.6 9.8-11.1 12.9-12 23.1-.3 4-1 8.6-1.6 10.1-2.1 5.6-3.2 1-3.6-15.1l-.4-15.8 13.5-12.2c14-12.6 17.3-17.1 19.2-26.2.4-1.9 1.6-5.8 2.7-8.5l1.9-5-3.8 4.2c-2.1 2.3-6.3 5.8-9.3 7.9-12.3 8.3-14.7 11.3-18.5 23.4-1.8 5.6-3.1 8-4.5 8-.8 0 1.5-17.3 3.3-24.5l1.2-5 15.9-10.1c16.5-10.4 18.3-12.1 23.6-22.4 1.5-3 4.7-7.2 7-9.3 5.3-4.7 4.4-6.1-1.3-2-2.3 1.7-8.7 5.3-14.2 8.1-11.2 5.6-14.6 8.8-19.8 18.3-3.9 7-8.7 12.4-8.7 9.8 0-5 10-30.4 13-33 1-.8 9.3-4.2 18.5-7.5l16.8-5.9 7.3-8c4-4.4 9.1-9.1 11.3-10.5 2.3-1.4 4.1-2.8 4.1-3.2 0-1.1.1-1.1-6.6 1.6-3.3 1.4-9.8 3.4-14.5 4.6-11 2.8-15.5 5.6-21.9 13.4-4.6 5.7-10.6 10.3-11.9 9.1-.9-.9 17.4-28.4 19.8-29.9.5-.3 9-1.7 19-3.1 10-1.4 19.2-3 20.4-3.4 1.2-.5 5.5-3.4 9.5-6.5 4-3.2 9.2-6.4 11.7-7.3 5.6-1.9 7.2-3.8 2.4-2.9-1.9.3-9.5 1.2-16.9 2-7.4.8-14.8 1.9-16.3 2.5-1.6.6-6 3.6-9.9 6.6-7.1 5.6-10.2 7-13.5 6.3-1.4-.3.7-2.9 9.4-11.5 6.1-6 12.6-11.7 14.5-12.6 2.1-1 5.3-1.4 8.8-1.2 3 .2 12 .6 20 1l14.5.7 9.9-5.1c5.5-2.8 11.1-5.1 12.5-5.1 3.6 0 7.1-1.1 7.1-2.1 0-.5-3-.8-6.7-.7-3.8.1-11.4-.4-17-1.1-11.9-1.5-13.1-1.3-23.7 4.1-7.8 3.9-15.5 5.5-16.6 3.4-.6-1.1 10.6-9 19.1-13.5 3.5-1.9 6.5-2.9 8-2.6 1.3.3 6.2.6 10.9.7 10.8.3 14.5-1.4 26.3-11.4 9-7.8 13.3-9.8 21.1-9.8 2 0 3.6-.4 3.6-1 0-2.9-21.8-4.9-32.5-3.1-11.4 2-20.7 7-28.9 15.4-4.4 4.6-10.8 9.7-17 13.5-5.4 3.4-10 6.2-10.2 6.2-.2 0-.4-.6-.4-1.4 0-.7 2.1-3.3 4.7-5.7 10.1-9.4 14.1-14.1 17.6-20.7 2-3.7 4.5-7.6 5.6-8.7 4.1-3.6 2.3-4.6-2.4-1.4z" fill="rgba(100, 214, 119, 1)" stroke="none"/>
  <path d="M530.8 160.2l-.3 11.3-5.9-7.8c-3.2-4.2-6-7.7-6.2-7.7-.2 0-.4 12.3-.4 27.3v27.4l6.6 9.1c6.2 8.7 6.5 9.3 6.2 14.2l-.3 5.1-4-3c-6.5-5-14.5-6.9-33.4-8.1-31.8-1.9-46.1-7-51.5-18.4-3.6-7.6-9.1-9.7-14.1-5.3-4 3.4-3.9 9 .2 12.7 1.7 1.5 3.7 3 4.4 3.2 1.5.5 1.6.1-17.9 43.3-14 31.2-25.3 55.6-31.2 67.8l-5.2 10.8 2.3 2.5c5.2 5.6 19.4 14 29.4 17.4 9.6 3.3 10.6 3.4 25 3.5 11.2 0 16.6-.4 21.5-1.8 9.4-2.5 23.5-9.8 30.7-15.8 5.5-4.6 6.1-5.5 4.9-6.8-1.9-2.2-54-117.1-53.3-117.7.5-.5 3-.1 29.7 5.2 34.1 6.7 54.9 16.4 61 28.5 1.9 3.7 2 6.4 2 87.9 0 57.5-.3 84-1 84-.6 0-2.9-.9-5.1-2.1-2.3-1.1-4.3-1.9-4.5-1.6-.4.3 14 32.4 14.9 33.3.2.2 3.8-7.1 8-16.3 4.2-9.2 7.4-16.9 7.2-17.1-.2-.3-2.7.7-5.5 2.2l-5 2.6V260.4l2.9-4.5c5.5-8.8 15.8-15.2 33.4-20.8 9.9-3.1 55.5-12.7 56.4-11.8.2.3-7.3 17.5-16.7 38.4-28.7 63.3-35.3 77.4-36.8 78.9-1.2 1.3-1.2 1.8.4 3.6 5.7 6.3 21.2 15.1 33.4 19 6.5 2 9.5 2.3 22.5 2.3 12.9 0 16-.3 22.5-2.3 9.2-2.9 17.7-7.1 25.5-12.7 11-7.8 10.8-6.3 3-22.2-6.5-13.4-44.1-95.8-47.3-103.7-1.3-3.4-1.4-4-.1-4.5.7-.2 2.6-1.7 4.1-3.2 2.1-2.1 2.8-3.7 2.8-6.7 0-6-4.7-9.1-10.7-7.1-2.6.8-3.9 2.1-5.3 5.3-1 2.2-2.7 5.1-3.9 6.3-7.1 7.5-22.3 11.7-47.3 13.3-19.7 1.2-26.1 2.7-33.5 7.6L540 239v-5.4c0-5.1.4-5.9 6.5-14.2l6.5-8.8v-27.3c0-15-.2-27.3-.5-27.3s-3.1 3.5-6.2 7.7l-5.8 7.8-.2-9c-.4-13.1-.6-13.5-5.3-13.5h-3.9l-.3 11.2zm-89.1 78.4c11.5 24.2 46.4 101.6 46 102.1-.6.5-104.9.4-105.5-.1-.2-.3 8.7-20.4 19.8-44.8 11.1-24.4 23-50.3 26.3-57.6 3.3-7.2 6.2-13.2 6.4-13.2.3 0 3.4 6.1 7 13.6zm197.1-8.9c1.1 2.7 12.8 28.6 26.1 57.7s24 53.1 23.7 53.3c-.5.5-104.8.4-105.3-.1-.4-.4 17.9-40.9 47.8-106.4 2.3-5 4.5-9.2 4.9-9.2.4 0 1.6 2.1 2.8 4.7z" fill="rgba(100, 214, 119, 1)" stroke="none"/>
</svg>
</g></svg></g></g>
<!-- /image 65430 -->

<!-- image 34863 -->
<g id="transformed-34863" data-image="34863" transform="translate(171.62, 89.85) rotate(342, 49.5, 28)"><g><svg version="1.1" width="99px" height="56px" viewBox="0 0 99 56"><g id="original-34863"><svg xmlns="http://www.w3.org/2000/svg" version="1.1" viewBox="0 0 1050 600" xmlns:xlink="http://www.w3.org/1999/xlink" preserveAspectRatio="xMidYMid meet">
  <path d="M446 60.5c-.8.2-4.8.9-8.9 1.5-26.9 4.4-49.1 20.2-59.7 42.5-5.6 11.7-6.5 17.8-6.2 44.5.6 49.3.6 48.9-4.7 49-3.9 0-14.1 5.7-18.8 10.6-2.8 2.8-6.4 8-8.3 12.1l-3.5 7.1H327c-10-.1-13.4 1.3-14.7 6-.4 1.5-.8 24.5-.8 51.2 0 53.6.3 56.8 6.6 76.4 9.3 28.7 28.8 54 56.1 72.7 20.7 14.2 47.9 23.9 66.9 23.9h5.9v69h-23.7c-13.4 0-25.4.5-27.5 1-6.1 1.7-7.5 6.4-3.3 10.5l2.4 2.5h58.9c55.8 0 59-.1 60.5-1.8 3.4-3.7 1.6-8.7-3.8-10.6-1.1-.4-11.4-.7-22.8-.7-11.5.1-22.4-.1-24.3-.5l-3.4-.6v-68.5l6.3-.7c33.8-3.6 62.3-17 85.2-40.1 21.4-21.7 34.1-44.9 40.1-73.5 1.6-7.4 1.8-14.9 2-57.8.1-27.2-.1-50.5-.5-52-1.4-5-4.8-6.4-15.5-6.3-7.8 0-9.6-.2-9.6-1.4 0-2.8-5.2-12.5-9-16.8-4.3-4.8-13-9.9-20.2-11.7l-4.6-1.2-.4-7.1c-.2-4 0-17.6.4-30.2 1.3-42.8-1.7-55.8-16.9-72.6C508.4 77 491.7 67.1 477 63c-6.9-1.9-26.8-3.6-31-2.5zm23.8 16.1c20 4.5 37.6 17 44.6 31.9 1.9 3.8 3.9 9 4.6 11.5.9 3.4 1.2 31.2 1.2 113.5.1 60-.3 111-.7 113.5-.3 2.5-2.7 8.8-5.2 14-7.5 15.5-19.2 24.9-40.3 32.2-8.8 3-10.4 3.2-22 3.2-17.4-.1-29-3.6-43.1-13-16.7-11.1-22.7-25-23.6-54.4l-.5-17.5h54l2.6-2.4c4.8-4.5 2.7-12.1-3.7-13.9-1.8-.5-14.4-.7-28-.4l-24.7.5v-49.5l25.8.3c21 .3 26.2.1 28.7-1.1 5.5-2.8 5.9-10.4.8-13.7-2.4-1.6-5.6-1.8-29-1.8H385V181h26c21.4 0 26.6-.3 29-1.5 5.3-2.7 5.3-10.3 0-13-2.4-1.2-7.6-1.5-28.9-1.5h-25.9l-.7-8.6c-.4-4.7-.4-12.2-.1-16.7 2.8-32.6 15.5-49.2 46.4-60.6 13.1-4.9 25.1-5.6 39-2.5zM371 237.5c0 18.9-.3 24.5-1.2 24.5-2.4-.1-9.3-3.7-11.5-6.1-8.2-9-8.7-26.1-1-35.4 2.8-3.5 9.4-7.4 12.5-7.5.9 0 1.2 5.6 1.2 24.5zm168.7-23.4c3.8 1.4 9 6.5 11.6 11.4 3.1 5.7 3.1 18.3 0 24.1-2.3 4.3-9.5 11.4-11.6 11.4-.6 0-2.2.3-3.4.6l-2.3.6v-24.6c0-26.8-.2-25.8 5.7-23.5zM337.5 248c4 15.1 15.6 26.4 29.5 28.6l4 .7v36.1c0 41.3.5 45 7.2 57.8 13.2 25.5 43.5 41.2 76.3 39.5 40.6-2.2 72.6-25.8 78.6-58.2 1.1-6.2 1.5-21.3 1.1-45.5-.5-31-.6-30 2.3-30 3.7 0 12.8-3.7 17.4-7.1 5.4-3.9 9.9-10.3 13.3-18.7l2.6-6.7 4.5-.3 4.4-.3.7 32.3c.9 44.6-.7 62-7.6 81.8-16.4 46.7-59.9 80.1-110.9 85.1-25.5 2.5-53.7-4.8-76.4-19.9-22.8-15-41.5-39.1-50.9-65.2-7.4-20.3-8.8-35.6-7.9-82.3l.6-32.8 5.1.3 5 .3 1.1 4.5z" fill="rgba(242, 255, 133, 0.6453488372093024)" stroke="none"/>
</svg>
</g></svg></g></g>
<!-- /image 34863 -->

<!-- image 26474 -->
<g id="transformed-26474" data-image="26474" transform="translate(86.84, 178.34) rotate(342, 49.5, 28)"><g><svg version="1.1" width="99px" height="56px" viewBox="0 0 99 56"><g id="original-26474"><svg xmlns="http://www.w3.org/2000/svg" version="1.1" viewBox="0 0 1050 600" xmlns:xlink="http://www.w3.org/1999/xlink" preserveAspectRatio="xMidYMid meet">
  <path d="M280.5 61.8c-2.2.7-5.1 2.5-6.4 3.9-3.2 3.4-5.2 9.2-4 11.5.9 1.7 9.1 1.8 159 1.8 109.2 0 158.6.3 160 1 1.1.6 2.3.8 2.8.5.5-.3 1.8 1.1 3 3.1 1.2 1.9 2.5 3.3 3 2.9.5-.3 1.3 0 1.7.6.5.8.3.9-.6.4-1-.6-1.1-.4-.6 1.1.5 1 1 3 1.2 4.4.2 1.4.4 94.9.4 207.7V506h4.6c3 0 4.3-.4 3.8-1.1-.4-.7.1-.7 1.6.1 1.8 1 2.7.8 5.6-1.2 1.9-1.3 3.2-2.8 3-3.4-.2-.6 0-1.7.6-2.5.8-1.1.8-1 .4.5-.5 1.6-.4 1.7.8.7 3.7-3.1 3.7-7.2 3.3-217.6-.2-113.3-.6-207.2-.9-208.7-.6-2.4-3.8-8.1-3.8-6.6 0 .3-1.4-.7-3.1-2.3-1.7-1.6-3.9-2.9-4.8-2.9-1.4 0-1.4.2-.1 1.1 1.2.9 1.2 1-.3.5-1-.3-2.1-.6-2.3-.6-.3 0-.3-.3-.1-.8.3-.4-72.5-.7-161.7-.7-130.1 0-162.9.3-166.1 1.3z" fill="rgba(100, 214, 119, 1)" stroke="none"/>
  <path d="M240.5 95.7c-6.9 1.5-12.5 5.3-12.5 8.5 0 1.1-.4 1.6-1 1.3-.5-.3-1 .2-1 1.2-.4 160.8-.3 422 .1 421.7.4-.2 1 .3 1.3 1.2.9 2.4.7 3.1-.4 1.4-.5-.8-1-1.1-1-.5 0 .5.4 1.6.9 2.4.7 1.1 1.1 1 2-.5.6-1.1 1-1.5 1.1-.9 0 .5-.4 1.6-.9 2.4-.7 1.1.1 2.2 3 4.3 4.2 3 5.4 3.5 4.3 1.6-.5-.8-.2-.9 1-.5.9.4 75.8.7 166.4.7 131.5 0 164.6-.2 164.4-1.2-.3-1-.1-1.1.9 0 .7.6 1.8 1.2 2.4 1.2.5 0 .3-.5-.5-1-1.3-.8-1.2-1 .4-1 2.1 0 5.4-3.3 6.7-6.8 1.4-3.6 1.2-420.5-.2-419.6-.8.5-.8.1 0-1.4 1.4-2.7 1.5-5.4.1-3.2-.8 1.2-1 .9-1-1.2 0-4.3-6.7-9.4-13.5-10.2-6-.7-319.7-.6-323 .1zm176.1 51.2c-.7 1.1 4.2 3.1 6.9 2.9 2.6-.2 21.6 5.1 23.3 6.4.8.8 1.2.7 1.2-.3s.3-1 .8-.3c1.1 1.7 10.4 6.4 11.4 5.8.4-.3.8 0 .8.5 0 .6.7 1.1 1.5 1.1s1.5.4 1.5 1c0 .5.5 1 1.1 1 .6 0 2.5 1.1 4.3 2.5 1.8 1.4 3.6 2.2 3.9 1.8.4-.3.7-.1.7.6 0 .8.6 1.1 1.6.7.9-.4 1.3-.2.8.5-.4.7-.1 1 .7.7.8-.3 1.3-1.2 1.1-1.9-.2-.8 0-1 .4-.6 1.1 1.1 1.4 3.8.3 3.1-1.7-1-.9.9 1.2 3.2 1.2 1.3 2.8 2 3.7 1.7.9-.4 1.3-.2.9.4-.4.6 0 1.6.8 2.3.8.7 1.5.9 1.5.5s1 .5 2.2 2.1c4.3 5.5 5.2 6.3 6.1 5.7.6-.3.7-.2.4.4-.8 1.3 2.2 5.5 3.4 4.7.5-.3.8-.2.7.3-.2.5.3 1.5 1 2.3.7.8 2.2 3 3.3 4.8 1.4 2.4 2.5 3.2 3.6 2.8 1.2-.5 1.3-.4.5.7-.9 1-.6 2.1 1.2 4.5 1.2 1.8 2.7 2.8 3.1 2.4.5-.4.5-.2.1.5s-.2 2 .3 3c1.4 2.4 4.5 9.9 6.2 14.5.7 2 1.5 3.5 1.8 3.3.3-.1.7 1 .7 2.7.1 1.7.5 3.3 1.1 3.7.5.3.9 2.5 1 4.8 0 2.4.6 5 1.4 5.9 1 1.2 1.3 6.8 1.4 23.1 0 11.8-.3 20.7-.7 19.6-.6-1.3-.7-.8-.5 1.4.2 1.8 0 3.3-.5 3.3s-.8.8-.7 1.7c.1 1-.1 2.5-.4 3.3-.3.8-1.8 5.3-3.3 10-1.5 4.7-3.5 10.3-4.6 12.5-1.3 2.7-1.4 3.4-.3 2.1.8-1.1 1.5-1.5 1.5-.9s-.7 1.6-1.4 2.3c-2.5 2-5.3 7.4-5.1 9.8.1 1.6-.1 1.9-1.1 1.1-.9-.7-1.4-.4-2 1.3-.4 1.3-.7 2.7-.6 3.1.1.5-.2.6-.7.2-1.3-.7-3.4 3.2-2.5 4.7.4.6.3.8-.4.4-.6-.3-2 .8-3.3 2.6-2.6 3.9-17.7 18.9-21.3 21.3-1.4 1-2.3 2.2-1.9 2.8.3.6.1.7-.5.3-1.9-1.2-5.1 1.2-4.7 3.4.2 1.2 0 1.8-.6 1.5-.5-.4-.6-1.1-.3-1.7.4-.6.1-.8-.7-.6-.8.3-1.3 1-1.2 1.6.2.7-.4.9-1.4.5-1.1-.4-1.4-.3-.9.5.5.8 0 1.2-1.4 1.2-1.3 0-1.9.4-1.4 1.2.4.6.3.8-.4.4-1.2-.7-7.5 2.7-6.6 3.7.3.3-.3.3-1.5 0s-2.1-.1-2.1.6c0 1.1 1.2 1.5 4 1.2 1.3-.2 1.3-.1 0 .8-1 .7-2.1.6-3.7-.4-2.5-1.7-3.7-1.9-2.9-.7.2.4-.5 1.4-1.7 2.2-2 1.2-2.1 1.2-.9-.3 1.1-1.3 1-1.5-.7-1-1.2.3-2.1.9-2.1 1.3s-.6.8-1.2.7c-3-.1-4.9.4-4.5 1 .3.5-1.1.9-3.1 1.1-4.2.3-5.2 1-3.2 2.2.8.6 1 1 .5 1-.6 0-1.6-.5-2.1-1-.8-.8-2.6-.7-6 .1-6.3 1.4-34.4 2.7-33.7 1.5.3-.5-.7-.6-2.3-.3-1.6.3-3.6.1-4.5-.4-1-.5-3.7-1-6.2-1.2-2.5-.1-4.9-.6-5.3-1-.4-.3-1.8-.4-3.2 0-1.9.4-2.3.3-1.7-.7.5-.8.4-1.1-.3-.6-.6.3-2.6-.3-4.5-1.4-2.1-1.2-4.1-1.8-5.2-1.3-1.3.4-1.6.3-1.1-.5.4-.7.5-1.2.2-1.2-.2 0-1.3-.3-2.3-.6-1.5-.5-1.5-.4-.3.5 1.1.8 1.1 1.1.2 1.1-.7 0-1.5-.7-1.8-1.5-.4-.8-1.3-1.5-2.1-1.5s-2.1-.7-3-1.5c-.8-.9-2.8-1.9-4.4-2.2-1.6-.3-2.9-1-2.9-1.6 0-.6-.3-.8-.6-.4-.3.3-1.3-.1-2.2-.9-3-2.6-16.2-12.4-16.8-12.4-.3 0-.2.6.2 1.2.4.8.3 1-.2.5s-.9-1.4-.9-2c-.1-.7-.7-1.1-1.4-.9-.7.1-1-.1-.7-.6.3-.5-1.7-3.1-4.4-5.7-2.8-2.7-5-4.4-5-3.7 0 .7.4 1.2.9 1.2 1.6 0 7.2 7.8 6.1 8.5-.6.4-.9.1-.8-.7.2-.7-.3-1.2-1-1-.8.1-1.1-.2-.7-.8.4-.6-.7-2.4-2.4-3.9-1.8-1.6-2.9-3.5-2.6-4.3.3-.8-.4-2.3-1.6-3.4-1.4-1.2-1.9-1.3-1.4-.4s0 .8-1.4-.4c-1.2-1.1-1.9-2.6-1.6-3.4.5-1.4-2-4.7-2.8-3.4-.2.4-.2.1 0-.6.2-.8-.5-2.6-1.5-4-1-1.5-2.4-3.9-3.1-5.4-.8-1.5-1.9-2.5-2.4-2.1-.6.4-.7.1-.3-.6.5-.7.1-2-.7-2.9-1.5-1.7-1.7-2.1-1.7-4.3 0-.5-.3-.8-.7-.6-.5.3-.9-.5-.9-1.6-.1-1.2-1-4-1.9-6.2-1.9-4.3-2.1-4.9-2.4-8-.1-1.7-.3-1.8-1.2-.5-.8 1.2-.9.9-.5-1.1.3-1.4.1-4.1-.5-6-.5-1.9-1.2-5.9-1.5-8.9-.2-3-.7-6.6-1-8-.9-3.8-.5-20.7.7-28 .6-3.6 1.1-8 1.1-9.8 0-1.7.4-3.5.9-3.8.5-.3.9-1.2.9-2s-.4-1.2-1-.9c-.6.3-.7-.1-.4-.9.3-.9 1-1.4 1.4-1.1 1.4.9 2.2-3.5.9-5.1-1-1.2-.9-1.3.3-.9 1.1.4 1.9-.3 2.7-2.6.6-1.8.9-3.5.6-3.7-.3-.3-.5.1-.5.8 0 .7-.3 1.1-.6.7-.4-.3.6-2 2-3.8 1.5-1.7 2.5-3.8 2.2-4.6-.3-.8-.1-1.1.4-.8.9.6 1.4-.8 1.1-2.8 0-.4.3-.7.8-.7s1.2-.7 1.5-1.6c.3-.8.2-1.2-.3-.9-1.5.9-2.5-1.5-1.2-2.8.9-.9 1-.8.5.7-.6 1.6-.5 1.7 1.5.6 1.3-.7 2-1.7 1.7-2.6-.3-.8 0-1.3.7-1.1.7.1 1.2-.6 1.2-1.5s.4-2 .9-2.5.6-.2.2.7c-.4.8-.1.6.6-.4.7-1.1 2.5-3.4 4.1-5.1 1.5-1.8 2.7-3.7 2.7-4.2 0-2.2 26.5-25.3 28.9-25.3.6 0 1.3-.5 1.7-1.2.5-.7.3-.8-.6-.3-.8.5-1.1.4-.6-.3.4-.6 1.3-.9 2-.6.7.3 2-.1 2.8-.9.8-.8 2.4-1.8 3.6-2.1 1.3-.4 1.9-1.2 1.6-1.8-.4-.7-.2-.8.5-.4.6.4 3.7-.5 6.8-2.1 3.2-1.5 6.2-2.9 6.8-3 8.2-2 13.3-3.8 14.6-4.9.8-.8 2-1.4 2.5-1.4s.2.5-.6 1.1c-1.2.8-1.1.9.5.5 5.3-1.4 24.8-2.8 31.2-2.2 4 .3 7.2.2 7.2-.2-.2-1.2.1-2.2.7-2.2.3 0 .3.4 0 .9zM287.4 433.2c-.5.8-.2.9 1.2.2 2.9-1.4 223.2-1.7 226.6-.3 1.9.8 3.2.8 4.7 0 1.7-1 2-.9 1.5.4-.3.8-1.1 1.2-1.8.8-.6-.3.1.6 1.7 2.2 1.5 1.5 2.7 3.2 2.7 3.8 0 .5.8.3 1.8-.4 1.5-1.3 1.6-1.2.4.3-.8.9-1 2.2-.6 2.9 1.1 1.9 2.1 13.9 1.1 13.9-.5 0-.7 1.3-.4 2.9.4 1.9.2 3.1-.6 3.5-.9.3-.8.8.3 1.6 1.3 1 1.2 1.1-.3.6-1.1-.3-2.2.2-2.9 1.4-.7 1.1-1.8 2-2.4 2-.6 0-1.7.7-2.4 1.5-1.1 1.3-15 1.5-114.2 1.5-110.3 0-113 0-116.7-2-5.3-2.7-8.4-9.1-8.4-17.4 0-3.3.5-7.4 1.2-8.9.6-1.5 1-3.3.8-4-.1-.7.3-1.1.9-1 .6.1 2.2-.9 3.4-2.2 1.3-1.4 2-2.5 1.6-2.5-.4 0-.4-.5-.1-1 .3-.6.8-1 1.1-1 .3 0 .2.5-.2 1.2z" fill="rgba(100, 214, 119, 1)" stroke="none"/>
  <path d="M392.5 170c-.4.6-2 .8-4 .4-1.8-.3-4.3-.3-5.4.1l-2.1.6 2.2 2.9c1.2 1.6 2.6 2.6 3.1 2.3.6-.3.7-.1.3.5-.4.7-.3 1.2.2 1.2.6 0 1.3.7 1.6 1.6.3.8.2 1.2-.4.9-.6-.3-1-.1-1 .5s.7 1.3 1.5 1.6c.8.4 1.2 1.1.7 1.8-2.8 4.3-2.9 12.6-.1 12.6.5 0 .9.7.9 1.6 0 .9.5 1.2 1.2.8.6-.4.8-.3.5.3-.4.6-.1 2.6.7 4.4 1.2 2.9 1.2 3.9-.1 7.4-.8 2.2-1.5 4.5-1.5 5.2-.1.6-.8.8-1.6.5-1.1-.4-1.4-.1-.9 1.1.4 1.2.2 1.4-1 1-1.2-.5-1.5-.2-1 1 .4 1.1.2 1.4-.7 1.1-.8-.3-2.1.5-3 1.8-.9 1.2-1.6 1.8-1.6 1.3-.2-5-6 15.6-6 21.2 0 1.8-.3 3.3-.7 3.3-.5 0-1.5 1.3-2.4 2.9-2.1 3.7-7.2 6.2-11 5.4-3.3-.6-6.3 1.2-5.5 3.4.4.9.1 1.1-.6.7-.8-.5-.9-.1-.4 1.2.4 1 .9 2.9 1.1 4.2.1 1.2.4 2.4.6 2.5.2.2 1.7 1.3 3.3 2.5 3.1 2.4 5.2 2.9 4 1-.4-.7-.3-.8.5-.4.6.4.9 1.1.6 1.5-.2.5.2 1.7.9 2.7.8 1 1.1 2.3.7 2.9-1.5 1.9-2.8 9.3-2 10.7.5.7.9.8.9.3 0-.6.4-.4.9.4.8 1.3 1.4 1.3 3.8.2 3.2-1.5 10.1-2.2 10.8-1.1.6.9 11.5 1.1 11.5.2 0-.4 1.2-.7 2.8-.7 1.5 0 4.3-.4 6.3-.8 2.8-.6 4.1-.3 6 1.2 2.4 1.9 2.3 1.6 3.1 17.6.2 3.5-.6 5.1-6 12.5-3.4 4.6-6 9-5.8 9.7.3.7-.1 1-.9.7-1.3-.5-4.2 3.2-3.7 4.8.1.5-.2.8-.8.8-1.7 0-1.1 7.3.8 10.1 2.1 3.3 4.8 5.9 5.4 5.4 1.2-1.2.7 7.1-.6 9-1.1 1.7-1.2 2.5-.3 3.6 1 1.1.9 1.1-.5 0-1.9-1.4-3.8-.7-3.8 1.4 0 .8-.7 1.8-1.6 2.3-.8.5-1.8 2.7-2.1 5l-.6 4.2 15.6-.3c12.9-.2 15.9-.5 17.4-1.9 1.1-1 2.7-1.5 4-1.2 1.2.3 4-.5 6.9-2 4.7-2.5 8.5-3.6 5.4-1.6-2.4 1.5-.7 1.2 3.1-.6 1.9-.9 4.5-2.6 5.9-3.8 2.1-1.8 2.2-1.8 1-.2-1.4 1.8-1.4 1.9.8.7 1.2-.7 2-1.6 1.7-2.1-.4-.6.1-.7 1.1-.3 1.1.4 1.5.2 1.1-.4-.4-.6 0-1.4.9-1.7.9-.3 1.2-.2.8.5-.3.6 1.7-.4 4.4-2.3 2.8-1.8 4.9-3.8 4.7-4.5-.2-.7.2-1 1-.7 1.6.7 2.1-1.1 3-10.9.3-3.7.2-7.3-.2-8-1.1-1.8-1.3-3.8-.2-3.1 1.2.7 1.1-.6-.3-8.2-.6-3.5-1.6-6.1-2.1-5.7-.5.3-.6-.4-.2-1.7.5-1.5.4-2-.4-1.6-.7.4-.9.1-.5-.8.8-2.1-2.1-3.3-9.4-3.9-6.4-.5-8.3-1.7-9.7-6-.4-.9-1.1-1.5-1.6-1.1-.6.3-.8-.4-.5-1.8.3-1.2.7-5.2 1-8.7l.4-6.5-5.2-5c-3.6-3.5-5.1-5.7-4.9-7.1.3-1.5.2-1.7-.5-.6-.7.9-.9.5-.9-1.5 0-1.6.2-2.4.4-1.7.5 1.3 6.8-5.3 6.8-7 0-.6.7-1.2 1.5-1.4 1.3-.4 1.3-.3 0 .6-.9.7-1 1.1-.3 1.1.6 0 1.5-.5 1.9-1.1 1.2-2.1 8.9-4.8 13.9-5 2.8 0 7.8.3 11.2.8 3.5.5 6.9.5 7.8.1 1-.6 1.5-.5 1.5.3s2 .9 7.3.4c7.5-.8 13.7-2.7 13.7-4.4 0-1.9-5.3-7.2-6.7-6.7-.8.3-1.1.1-.8-.4.8-1.2-9.9-.6-13.6.8-1.3.5-3.3.8-4.4.7-2.9-.3-9.5-3.2-9.5-4.3 0-.4-.9-1.7-1.9-2.9-1.6-1.7-2.8-1.9-7.3-1.5-2.9.2-5.9.9-6.6 1.5-1 .8-1.6.7-2 0-.4-.7-1.6-1.1-2.7-1-1.7.2-1.9-.3-1.7-3.8.4-4.7 3.2-9.3 9.4-15.5 5.3-5.3 6.8-7.8 6.4-11.1-.4-4-1.6-5.8-3.3-5.2-1.1.4-1.4.2-.9-.5.6-1.1-3.1-3.8-4.6-3.4-.5.1-.8-.2-.8-.7 0-1-3.6-2.5-6-2.6-.8 0-1.5-.5-1.5-1 0-.6-1-2.3-2.2-3.8-1.5-1.9-2.3-2.3-2.7-1.5-.4.7-.4.3-.2-1 .2-1.2 0-2.2-.6-2.2-.5 0-.6-.5-.3-1 .3-.6.1-1-.5-1s-.8-.5-.5-1c.4-.6.3-1.6-.2-2.3-.6-.7-.9-3.2-.8-5.6.2-4.1 0-4.4-3.3-5.8-1.9-.8-3.7-1.2-4-.9-.3.3.1.6.8.6.7 0 1.1.2.8.5-.2.3-1.8-.1-3.4-.9-3.8-1.8-16.6-3.2-14.4-1.6 1.2 1 1.1 1-.5.4-3.4-1.3-15.2-1.7-16-.4z" fill="rgba(100, 214, 119, 1)" stroke="none"/>
  <path d="M303 249.9c0 1.6-.5 3.1-1.2 3.3-.8.3-1.2 5.8-1.5 18.4-.2 11.4 0 17.2.6 15.9.8-1.6 1-1.7 1-.3.1.9.4 2.5.7 3.5.5 1.5.4 1.6-.6.3-.9-1.2-1-.8-.5 2 1.5 7.9 3.8 14.9 4.8 14.3.6-.4.7-.1.3.6-.5.7 0 2.1 1.1 3.3 1 1.2 1.2 1.8.5 1.4-1-.6-.9.2.2 2.9.9 2.1 1.6 3.9 1.6 4.2 0 .2.5.1 1.2-.3.6-.4.8-.3.4.4-1.2 2 8.9 17.6 11 16.8.7-.3 2 .5 3.1 1.7l1.8 2.2-2.2-1.9c-3.8-3.2-2.7.3 1.3 4 1.9 1.9 3.3 3.4 2.9 3.4-.3 0 .3.9 1.4 2.1 1.1 1.2 2.4 1.8 3 1.5.5-.4 1.3-.1 1.7.5.5.8.2 1-.7.5-.8-.4-.3.2 1 1.4 1.3 1.1 3 1.9 3.7 1.6.8-.3 1.1 0 .8.8-.3.7.3 1.9 1.2 2.7 1.6 1.2 1.7 1.2.9-.1-.5-.8 1 .2 3.3 2.2 4.4 3.9 5.8 4.7 4.7 2.5-.4-.6-.1-.5.7.3 2.3 2.7 9.2 6.3 9.6 5 .3-.7.9-.4 1.8.7.9 1.2 1.3 1.3 1.4.5 0-.7.5-1 1.1-.7.6.4.5-.2-.3-1.4-.7-1.2-1.6-2.1-2.1-2.1-1.1 0-.4-5.3.7-6.2.6-.4.4-1.3-.4-2.2-.7-.9-1-1.9-.6-2.3.3-.3.6 0 .6.7s.3 1 .6.7c2-2-9.3-8.2-13-7.2-1.7.5-1.8.4-.6-.4.8-.6 1.3-1.1 1-1.2-3.2-.6-5.6-.4-6.2.5-.4.6-.6.1-.5-1.1.1-1.7.4-2 1.9-1.2 1 .6-.1-1-2.5-3.4-6.1-6.1-8.1-12.3-7.3-23 .9-11.7 1-12.6 1.9-12 .4.2.7-.3.7-1.2 0-1-.5-1.3-1.2-.9s-.8.3-.4-.5c.4-.6 1.1-.9 1.5-.7 1.1.7 7.5-6.2 9.6-10.3 1.3-2.6 1.4-3.6.4-4.5-.7-.7-1-.7-.6 0 .3.6 0 1.1-.7 1.1-.8 0-1.1-.9-.8-2.4.2-1.2.8-2 1.3-1.7.5.3.6-.2.3-1-.3-.9-1-1.6-1.6-1.6-.5 0-.7-.4-.4-.9.7-1-1.8-3.3-2.7-2.6-.4.3-.5.2-.2-.1.8-1.2-2.4-3.4-4.2-2.8-1.3.4-1.4.3-.5-.3 1-.8 1-1.2-.3-2.3-.8-.7-1.5-.9-1.5-.6 0 .4-1-.2-2.1-1.3-1.8-1.7-2.6-1.8-4.3-.9-1.8 1-1.9.9-.8-.4 1-1.3 1-1.7-.3-2.2-.8-.3-2.3-.3-3.2 0-1.5.5-1.6.4-.3-.5.8-.6 1.3-1.1 1-1.2-3.2-.6-5.7-.4-6.3.5-.6.7-.7.6-.4-.4.2-.8 1.2-1.4 2.1-1.4 2.2.2 2-.1-1-2.1-1.8-1.2-2.4-1.3-1.9-.4.4.8-.5-.1-2-1.9-1.6-1.9-3.3-3.1-4.1-2.8-.8.3-1.3.2-1.1-.2.1-.4-.9-1.8-2.1-3.1-1.8-1.7-2.7-2-3.5-1.1-.7.6-.7 1-.2.8.6-.2 1.1 0 1.3.4.1.5 0 .8-.3.8h-1.4c-.6 0-.9-.9-.8-1.9 0-1.1.5-1.7.9-1.5 1.3.8.9-2.1-.4-3.4-1.9-1.9-2.8-1.4-2.8 1.7z" fill="rgba(100, 214, 119, 1)" stroke="none"/>
</svg>
</g></svg></g></g>
<!-- /image 26474 -->
</defs><rect x="0" y="0" width="250" height="250" fill="rgba(0, 121, 101, 1)"></rect><use xlink:href="#transformed-45079" transform="translate(-250, -250)"></use><use xlink:href="#transformed-45079" transform="translate(0, -250)"></use><use xlink:href="#transformed-45079" transform="translate(250, -250)"></use><use xlink:href="#transformed-45079" transform="translate(-250, 0)"></use><use xlink:href="#transformed-45079" transform="translate(0, 0)"></use><use xlink:href="#transformed-45079" transform="translate(250, 0)"></use><use xlink:href="#transformed-45079" transform="translate(-250, 250)"></use><use xlink:href="#transformed-45079" transform="translate(0, 250)"></use><use xlink:href="#transformed-45079" transform="translate(250, 250)"></use><use xlink:href="#transformed-82600" transform="translate(-250, -250)"></use><use xlink:href="#transformed-82600" transform="translate(0, -250)"></use><use xlink:href="#transformed-82600" transform="translate(250, -250)"></use><use xlink:href="#transformed-82600" transform="translate(-250, 0)"></use><use xlink:href="#transformed-82600" transform="translate(0, 0)"></use><use xlink:href="#transformed-82600" transform="translate(250, 0)"></use><use xlink:href="#transformed-82600" transform="translate(-250, 250)"></use><use xlink:href="#transformed-82600" transform="translate(0, 250)"></use><use xlink:href="#transformed-82600" transform="translate(250, 250)"></use><use xlink:href="#transformed-16801" transform="translate(-250, -250)"></use><use xlink:href="#transformed-16801" transform="translate(0, -250)"></use><use xlink:href="#transformed-16801" transform="translate(250, -250)"></use><use xlink:href="#transformed-16801" transform="translate(-250, 0)"></use><use xlink:href="#transformed-16801" transform="translate(0, 0)"></use><use xlink:href="#transformed-16801" transform="translate(250, 0)"></use><use xlink:href="#transformed-16801" transform="translate(-250, 250)"></use><use xlink:href="#transformed-16801" transform="translate(0, 250)"></use><use xlink:href="#transformed-16801" transform="translate(250, 250)"></use><use xlink:href="#transformed-83490" transform="translate(-250, -250)"></use><use xlink:href="#transformed-83490" transform="translate(0, -250)"></use><use xlink:href="#transformed-83490" transform="translate(250, -250)"></use><use xlink:href="#transformed-83490" transform="translate(-250, 0)"></use><use xlink:href="#transformed-83490" transform="translate(0, 0)"></use><use xlink:href="#transformed-83490" transform="translate(250, 0)"></use><use xlink:href="#transformed-83490" transform="translate(-250, 250)"></use><use xlink:href="#transformed-83490" transform="translate(0, 250)"></use><use xlink:href="#transformed-83490" transform="translate(250, 250)"></use><use xlink:href="#transformed-46147" transform="translate(-250, -250)"></use><use xlink:href="#transformed-46147" transform="translate(0, -250)"></use><use xlink:href="#transformed-46147" transform="translate(250, -250)"></use><use xlink:href="#transformed-46147" transform="translate(-250, 0)"></use><use xlink:href="#transformed-46147" transform="translate(0, 0)"></use><use xlink:href="#transformed-46147" transform="translate(250, 0)"></use><use xlink:href="#transformed-46147" transform="translate(-250, 250)"></use><use xlink:href="#transformed-46147" transform="translate(0, 250)"></use><use xlink:href="#transformed-46147" transform="translate(250, 250)"></use><use xlink:href="#transformed-99143" transform="translate(-250, -250)"></use><use xlink:href="#transformed-99143" transform="translate(0, -250)"></use><use xlink:href="#transformed-99143" transform="translate(250, -250)"></use><use xlink:href="#transformed-99143" transform="translate(-250, 0)"></use><use xlink:href="#transformed-99143" transform="translate(0, 0)"></use><use xlink:href="#transformed-99143" transform="translate(250, 0)"></use><use xlink:href="#transformed-99143" transform="translate(-250, 250)"></use><use xlink:href="#transformed-99143" transform="translate(0, 250)"></use><use xlink:href="#transformed-99143" transform="translate(250, 250)"></use><use xlink:href="#transformed-65430" transform="translate(-250, -250)"></use><use xlink:href="#transformed-65430" transform="translate(0, -250)"></use><use xlink:href="#transformed-65430" transform="translate(250, -250)"></use><use xlink:href="#transformed-65430" transform="translate(-250, 0)"></use><use xlink:href="#transformed-65430" transform="translate(0, 0)"></use><use xlink:href="#transformed-65430" transform="translate(250, 0)"></use><use xlink:href="#transformed-65430" transform="translate(-250, 250)"></use><use xlink:href="#transformed-65430" transform="translate(0, 250)"></use><use xlink:href="#transformed-65430" transform="translate(250, 250)"></use><use xlink:href="#transformed-34863" transform="translate(-250, -250)"></use><use xlink:href="#transformed-34863" transform="translate(0, -250)"></use><use xlink:href="#transformed-34863" transform="translate(250, -250)"></use><use xlink:href="#transformed-34863" transform="translate(-250, 0)"></use><use xlink:href="#transformed-34863" transform="translate(0, 0)"></use><use xlink:href="#transformed-34863" transform="translate(250, 0)"></use><use xlink:href="#transformed-34863" transform="translate(-250, 250)"></use><use xlink:href="#transformed-34863" transform="translate(0, 250)"></use><use xlink:href="#transformed-34863" transform="translate(250, 250)"></use><use xlink:href="#transformed-26474" transform="translate(-250, -250)"></use><use xlink:href="#transformed-26474" transform="translate(0, -250)"></use><use xlink:href="#transformed-26474" transform="translate(250, -250)"></use><use xlink:href="#transformed-26474" transform="translate(-250, 0)"></use><use xlink:href="#transformed-26474" transform="translate(0, 0)"></use><use xlink:href="#transformed-26474" transform="translate(250, 0)"></use><use xlink:href="#transformed-26474" transform="translate(-250, 250)"></use><use xlink:href="#transformed-26474" transform="translate(0, 250)"></use><use xlink:href="#transformed-26474" transform="translate(250, 250)"></use></svg>